<svg xmlns="http://www.w3.org/2000/svg" viewBox="0 0 480 360" role="img" aria-labelledby="title desc">
  <title id="title">Устройства умного дома</title>
  <desc id="desc">Схематические сенсоры, датчики и контроллеры для системы Hwellyi</desc>
  <defs>
    <linearGradient id="bg" x1="0%" y1="100%" x2="100%" y2="0%">
      <stop offset="0%" stop-color="#ebf8f9" />
      <stop offset="100%" stop-color="#dff3f6" />
    </linearGradient>
    <linearGradient id="device" x1="0%" y1="0%" x2="0%" y2="100%">
      <stop offset="0%" stop-color="#75b8cd" />
      <stop offset="100%" stop-color="#417686" />
    </linearGradient>
  </defs>
  <rect width="480" height="360" rx="28" fill="url(#bg)" />
  <g transform="translate(72 88)">
    <rect x="0" y="48" width="112" height="160" rx="24" fill="#ffffff" />
    <circle cx="56" cy="120" r="32" fill="url(#device)" />
    <circle cx="56" cy="120" r="12" fill="#d8f4ff" />
    <rect x="36" y="80" width="40" height="8" rx="4" fill="#cbe7ef" />
  </g>
  <g transform="translate(196 48)">
    <rect x="0" y="72" width="132" height="188" rx="26" fill="#ffffff" />
    <rect x="24" y="96" width="84" height="60" rx="16" fill="url(#device)" />
    <rect x="24" y="168" width="84" height="40" rx="14" fill="#ecf9fb" />
    <circle cx="40" cy="188" r="8" fill="#75b8cd" />
    <rect x="68" y="180" width="32" height="16" rx="6" fill="#75b8cd" />
    <path d="M66 34c0-12 10-22 22-22s22 10 22 22" stroke="#75b8cd" stroke-width="10" stroke-linecap="round" />
    <path d="M66 12c0-12 10-22 22-22s22 10 22 22" stroke="#8fd2e3" stroke-width="6" stroke-linecap="round" opacity="0.4" />
  </g>
  <g transform="translate(356 112)">
    <rect x="0" y="0" width="72" height="120" rx="20" fill="#ffffff" />
    <rect x="16" y="20" width="40" height="48" rx="12" fill="url(#device)" />
    <rect x="22" y="84" width="28" height="12" rx="6" fill="#d8f4ff" />
    <circle cx="36" cy="108" r="6" fill="#75b8cd" />
  </g>
  <g fill="#417686" opacity="0.2">
    <circle cx="128" cy="288" r="24" />
    <circle cx="256" cy="306" r="30" />
    <circle cx="372" cy="280" r="22" />
  </g>
</svg>
